<?xml version="1.0" encoding="UTF-8"?>
<!DOCTYPE svg PUBLIC "-//W3C//DTD SVG 1.1//EN" "http://www.w3.org/Graphics/SVG/1.1/DTD/svg11.dtd">
<!-- Creator: CorelDRAW 2017 -->
<svg xmlns="http://www.w3.org/2000/svg" xml:space="preserve" width="40.6199mm" height="36.3892mm" version="1.1" style="shape-rendering:geometricPrecision; text-rendering:geometricPrecision; image-rendering:optimizeQuality; fill-rule:evenodd; clip-rule:evenodd"
viewBox="0 0 3979.91 3565.39"
 xmlns:xlink="http://www.w3.org/1999/xlink">
 <defs>
  <style type="text/css">
   <![CDATA[
    .str0 {stroke:#2B404A;stroke-width:103.69;stroke-miterlimit:22.9256}
    .fil4 {fill:#F6ECDA}
    .fil2 {fill:#F6EAD8}
    .fil7 {fill:#BF3838}
    .fil5 {fill:#20A8CA}
    .fil3 {fill:#2B404A}
    .fil0 {fill:#F6ECDA;fill-rule:nonzero}
    .fil1 {fill:#BF3838;fill-rule:nonzero}
    .fil6 {fill:#2B404A;fill-rule:nonzero}
   ]]>
  </style>
 </defs>
 <g id="__x2018_лой_x0020_1">
  <metadata id="CorelCorpID_0Corel-Layer"/>
  <g id="_2953142780128">
   <path class="fil0" d="M834.94 2251.75c-142.31,-213.82 -225.47,-470.22 -225.47,-745.76 0,-744.23 605.5,-1349.71 1349.72,-1349.71 413.64,0 784.24,187.22 1032.03,481.18 28.94,-0.16 58.93,0.33 89.9,1.48 -259.74,-335.31 -665.92,-551.78 -1121.92,-551.78 -782.37,0 -1418.85,636.47 -1418.85,1418.83 0,273.34 77.9,528.76 212.38,745.57 26.91,-0.46 54.5,-0.35 82.21,0.19z"/>
   <path class="fil0" d="M3297.49 1678.63c-7.94,61.82 -19.95,122.36 -35.99,181.3 22.6,0.73 46.7,1.02 71.54,1.1 18.02,-69.69 30.78,-141.46 38.01,-214.83 -24.7,10.63 -49.54,21.43 -73.56,32.43z"/>
  </g>
  <g id="_2953142781536">
   <path class="fil1" d="M3434.53 1618.83c-6.28,82.78 -19.2,163.71 -38.59,242.18 8.89,-0.02 17.75,-0.04 26.61,-0.04 19.96,-82.27 33.1,-167.14 38.88,-254.01 -8.77,3.93 -17.73,7.89 -26.9,11.88z"/>
   <path class="fil1" d="M682.98 2254.26c-129.33,-219.72 -203.87,-475.4 -203.87,-748.27 0,-816.11 663.96,-1480.07 1480.09,-1480.07 494.34,0 932.53,243.85 1201.47,617.32 11.09,0.79 22.46,1.81 33.78,2.79 -272.43,-390.12 -724.41,-646.04 -1235.26,-646.04 -830.4,0 -1506,675.59 -1506,1505.99 0,273.14 73.46,529.29 201.11,750.4 9.35,-0.82 18.92,-1.52 28.67,-2.14z"/>
  </g>
  <g id="_2953142782432">
   <path class="fil2" d="M1545.22 1255.19c-82.19,-38.7 -234.94,-64.88 -483.69,-38.24 344.08,-395.02 841.13,-550.51 1328.36,-390.17 145.43,-37.72 1054.12,-135.2 1451.18,73.88 -587.71,100.04 -316.07,187.48 -945.09,282.76 -728.91,110.41 -1312.79,770.67 -1251.71,1202.72 -443.77,-365.86 -424.35,-804.54 -99.06,-1130.94z"/>
   <path class="fil3" d="M1458.99 1563.67c-1.07,1.77 -2.12,3.6 -3.17,5.44 -20.76,36.13 -37.04,74.58 -48.73,114.6l-0.04 0.19c-8.6,26.9 -15.02,54.44 -19.09,82.37l-0.41 2.94 -2.39 1.77c-93.61,69.51 -164.14,157.78 -213.18,262.74 69.5,-33.27 139.69,-63.49 213.5,-86.47l7.81 -2.43 1.39 8.07c30.6,172.35 129.42,332.7 268.4,438.84l0.19 0.13 0.15 0.15c14.19,12.33 29.7,23.55 45.08,34.2 21.85,15.22 44.39,29.54 67.15,43.56 6.13,3.93 12.34,7.71 18.77,11.44l0.06 0.02c48.06,27.77 100.54,46.63 155.03,57.28l3.74 0.74 1.49 3.57c62.57,149.87 258.92,297.38 427.44,307.51 -14.98,-9.34 -29.43,-19.43 -43.16,-30.62 -36.37,-29.57 -64.19,-64.22 -87.59,-104.64 -31.6,-54.47 -54.22,-116.65 -72.98,-176.51l-0.65 -1.99 0.53 -2.02c43.62,-163.72 203.1,-352.71 334.27,-470.03 -72.72,18.85 -144.68,46.28 -212,78.52 -78.05,37.36 -155.63,84.03 -221.99,139.75 -52.13,43.81 -106.75,101.5 -131.69,165.97l-2.49 6.45 -6.54 -2.25c-93.37,-31.88 -151.9,-107.46 -176.98,-200.69 -10.82,-40.05 -15.24,-82.89 -12.81,-124.36 1.93,-32.39 8.44,-69.24 23.27,-98.42 40.97,-80.74 121.91,-132 202.79,-166.5 47.67,-20.35 97.67,-35.93 147.79,-48.79 53.34,-13.72 107.5,-24.51 161.74,-33.75 87.37,-14.91 174.6,-30.12 262.45,-41.76 38.36,-5.09 76.78,-10.29 114.99,-16.55 31.54,-5.19 63.37,-11 94.27,-19.1 80.55,-21.11 161.74,-37.55 241.18,-62.5 115.38,-36.24 272.68,-93.78 357.44,-184.08l-51.98 13.46 -10.47 -25.7 -52.56 6.46 3.7 -32.65 -67.83 21.1 2.61 -29.82 -66.98 23.5 1.78 -35.59 -0.52 6.29c-21.86,8.93 -43.69,17.9 -65.56,26.84l-0.04 -12.74 -52.95 21.69 -0.02 -19.37 -30.57 15.36 -3.12 -40.19 54.09 -24.43 -0.06 10.96 49.23 -17.79 -0.86 10.53 53.81 -19.47 -1.4 17.34 80.87 -28.29 -2.4 18.18 85.35 -22.69 -3.61 21.12 84.54 -21.67 -5.35 27.1 82.82 -29.41 -4.11 48.18c47.93,-34.48 92.96,-71.17 119.09,-97.76 13.43,-13.64 35.69,-27.53 48.58,-41.74 93.28,-102.91 170.19,-217.07 231.45,-341.64 -16.79,-8.49 -40.4,-14.72 -57.32,-18.93 -37.46,-9.3 -76.22,-15.83 -114.43,-21.28 -51.99,-7.42 -104.34,-12.75 -156.69,-16.73 -63.44,-4.81 -127.01,-7.62 -190.56,-8.79 -150.05,-2.79 -300.95,3.5 -450.18,18.94 -164.28,17.03 -328.4,45.49 -487.74,89.08l-0.66 0.13 -2.49 0.27 -1.56 -0.62c-24.32,-8.96 -49.05,-16.81 -73.95,-23.96 -0.48,-0.09 -0.96,-0.24 -1.4,-0.35 -28.7,-8.37 -57.81,-15.24 -87.04,-21.5l-1.59 -0.33 -0.04 0.01 -1.38 -0.29c-306.33,-61.63 -666.92,1.18 -907.43,210.23 80.81,-11.66 165.98,-9.64 244.13,13.94 73.12,22.04 139.88,63.37 182.01,128.32l3.54 5.43 -5.06 4.08c-96.28,78.04 -180.01,169.29 -245.94,274.54 -1.14,1.8 -2.24,3.59 -3.31,5.35l-0.11 0.14c-1.09,1.78 -2.24,3.63 -3.32,5.42l-0.05 0.07c-1.14,1.81 -2.23,3.64 -3.31,5.41l-0.02 0.07c-1.1,1.87 -2.19,3.69 -3.32,5.58l0.01 0.05c-1.14,1.83 -2.18,3.69 -3.29,5.52l-0.09 0.24z"/>
   <path class="fil3" d="M1758.83 1375.45c240.9,-173.2 481.99,-329.45 601.56,-433.17 -289.8,-129.55 -790.06,-95.59 -1086.39,178.27 249.36,-44.73 463.11,51.89 484.82,254.89z"/>
   <path class="fil2" d="M1585.61 949.77c246.43,-67.75 513.23,-51.15 696.19,30.62 -53.42,15.05 -100.54,29.78 -141.34,44.16 -171.7,-94.48 -356.64,-119.38 -554.86,-74.78z"/>
   <path class="fil3" d="M1274.01 1120.56c193.52,-34.73 365.54,15.71 443.07,134.96 59.31,-49.33 135.82,-99.61 229.45,-150.97 -243.88,-106.05 -468.07,-100.75 -672.52,16.01z"/>
   <path class="fil4" d="M2539.51 2050.58c-255.36,58.01 -572.64,246.11 -609.73,430.96 25.94,178.18 277.55,382.55 479.42,376.41 -102.03,-57.19 -162.67,-126.31 -223.9,-321.54 44.81,-168.29 216.49,-368.3 354.21,-485.83z"/>
   <polygon class="fil5" points="1727.94,2443.96 1727.98,2443.99 1727.91,2443.92 "/>
   <path class="fil3" d="M1387.6 1954.15c30.2,170.17 127.49,333.62 271.15,443.35 -83.25,-83.44 -184.91,-250.23 -151.55,-474.04 -40.27,8.28 -80.32,18.45 -119.59,30.7z"/>
   <path class="fil3" d="M3855.91 898.41c-137.69,-70.35 -1566.56,-205.38 -2224.1,433.92 -111.74,108.62 -180.44,209.35 -224.72,351.37 125.51,-109.9 276.01,-160.8 436.98,-177.88 216.86,-166.88 466.61,-282.79 727.05,-366.92 -92.96,2.9 -170.76,4.78 -254.38,32.26 139.63,-82.15 393.55,-137.79 761.8,-166.99 -14.12,-17.29 -47.53,-55.53 -64.49,-72.91 60.86,-11.56 195.28,-2.35 388.96,25.3 145.64,-21.35 306.65,-41.43 452.91,-58.16z"/>
   <path class="fil3" d="M1716.24 1256.5c-144.72,117.59 -256.68,247.59 -309.14,427.21 46.76,-41.56 105.69,-76.64 168.82,-108.35 24.97,-106.91 60.66,-226.98 140.33,-318.86z"/>
   <path class="fil4" d="M2997.4 2078.48c46.1,-6.99 89.12,24.71 96.11,70.79 6.98,46.1 -24.72,89.15 -70.83,96.14 -46.1,6.98 -89.14,-24.75 -96.12,-70.85 -6.99,-46.08 24.74,-89.09 70.84,-96.08z"/>
   <path class="fil4" d="M2775.19 2214.88c17.61,-2.67 34.04,9.44 36.7,27.03 2.67,17.62 -9.44,34.05 -27.05,36.71 -17.58,2.67 -34.01,-9.44 -36.67,-27.05 -2.67,-17.6 9.45,-34.03 27.02,-36.69z"/>
   <path class="fil4" d="M2679.4 2059.23c30.33,-4.6 58.71,16.27 63.3,46.62 4.61,30.37 -16.32,58.71 -46.65,63.29 -30.38,4.61 -58.73,-16.26 -63.32,-46.64 -4.6,-30.34 16.29,-58.68 46.67,-63.28z"/>
   <path class="fil4" d="M1911.06 2173.62c20.12,-3.06 38.88,10.79 41.92,30.85 3.04,20.06 -10.79,38.81 -30.9,41.86 -20.08,3.04 -38.83,-10.78 -41.87,-30.83 -3.05,-20.07 10.79,-38.84 30.85,-41.88z"/>
   <path class="fil4" d="M2019.13 1981.39c25.57,-3.88 49.5,13.74 53.37,39.35 3.88,25.58 -13.75,49.51 -39.33,53.39 -25.6,3.88 -49.49,-13.77 -53.36,-39.34 -3.88,-25.61 13.71,-49.52 39.32,-53.4z"/>
   <path class="fil4" d="M2426.17 1907.88c10.05,-1.52 19.45,5.41 20.97,15.46 1.52,10.02 -5.4,19.4 -15.46,20.93 -10.05,1.53 -19.45,-5.39 -20.96,-15.41 -1.53,-10.05 5.4,-19.45 15.45,-20.98z"/>
   <path class="fil4" d="M2018.31 2107.87c10.05,-1.53 19.38,5.38 20.91,15.46 1.52,10.02 -5.35,19.38 -15.4,20.91 -10.07,1.53 -19.44,-5.38 -20.96,-15.39 -1.53,-10.08 5.38,-19.45 15.45,-20.98z"/>
   <path class="fil4" d="M1936.88 2299.49c10.02,-1.52 19.39,5.36 20.91,15.41 1.53,10.04 -5.38,19.43 -15.4,20.95 -10.01,1.52 -19.41,-5.4 -20.93,-15.45 -1.53,-10.05 5.4,-19.39 15.42,-20.91z"/>
   <path class="fil4" d="M3059.32 1907.89c10.05,-1.52 19.43,5.4 20.95,15.46 1.52,10 -5.39,19.39 -15.44,20.91 -10.02,1.52 -19.41,-5.4 -20.93,-15.4 -1.53,-10.06 5.4,-19.45 15.42,-20.97z"/>
   <path class="fil3" d="M1844.07 1505.83c22.71,55.9 34.08,83.85 34.08,83.85 -372.79,46.83 -613.08,199.86 -720.92,459.19 124.22,-322.99 353.16,-503.99 686.85,-543.04z"/>
   <path class="fil2" d="M3590.42 1259.37c6.11,-6.21 14.11,-12.49 22.18,-18.82 -225.08,-98.47 -659.8,-120.75 -755.54,-11.45 -104.11,118.87 -119.68,216.23 -119.68,216.23l333.1 -141.22 -18.01 38.93 67.15 -31.05 -8.94 32.86 60.99 -23.76 0.55 30.93 61.84 -35.68 2.97 28.58 79.98 -33.1 -6.04 35.33 86.98 -35.88 -8.3 41.99 85.76 -44.31 -4.11 48.18c47.93,-34.48 92.96,-71.17 119.1,-97.76z"/>
   <path class="fil4" d="M1958.77 2547.59c15.02,-38.97 28.4,-96.96 9.14,-123.19 -210.87,-57.08 -238.61,-292.47 -190.15,-391.65 185.32,-379.23 1228.6,-173.19 1584.27,-574.33 -111.28,-48.67 -265.39,-99.77 -490.75,-45.07 253.65,-153.97 480.86,-156.57 698.2,-125.59 102.93,-103.54 195.27,-230.27 271.59,-387.11 -586.19,93.22 -1059.98,216.56 -1421.38,369.97 3.82,59.83 19.22,121.36 46.21,184.58 -50.67,-58.69 -86.19,-111.42 -106.7,-158.21 -5.92,2.66 -11.77,5.34 -17.62,8.01 5.62,53.61 20.49,108.53 44.55,164.83 -44.11,-51.08 -76.79,-97.62 -98.03,-139.69 -6.98,3.4 -14,6.79 -20.91,10.27 6.98,46.84 20.93,94.68 41.83,143.57 -37.48,-43.37 -66.68,-83.54 -87.63,-120.4 -134.6,69.98 -249.04,145.3 -343.25,226.08 -365.01,41.28 -605.3,194.32 -720.92,459.19 147.79,-71.96 256.48,-112.21 425.66,-139.22 -89.85,308.65 78.3,585.87 375.89,637.94z"/>
   <path class="fil2" d="M3324.08 945.92c-159.9,-16.31 -354.47,-5.28 -354.47,-5.28 0,0 69.07,98.69 354.47,5.28z"/>
   <path class="fil2" d="M3043.69 1114.7c-282.91,-19.35 -404.29,-32.02 -626.51,35.63 153.94,-11.42 395.82,19.58 395.82,19.58 78.94,-31 230.69,-55.2 230.69,-55.2z"/>
  </g>
  <g id="_2953142800544">
   <g>
    <g>
     <path class="fil6 str0" d="M1002.3 3361.43c2.81,-27.65 2.74,-55.99 9.18,-82.76 7.53,-31.3 25.82,-35.33 50.86,-14.83 59.06,48.33 124.5,83.6 201.53,90.25 28.43,2.46 58.22,-1.33 86.23,-7.52 12.67,-2.79 30.54,-17.53 31.68,-28.36 1.51,-14.46 -6.97,-35.35 -18.36,-44.51 -17.54,-14.08 -40.67,-21.97 -62.36,-29.92 -45.44,-16.67 -92.73,-28.85 -137.05,-47.97 -86.73,-37.43 -132.78,-106.87 -136.38,-200.15 -6.02,-156 36.42,-299.48 125.35,-427.91 38.21,-55.19 87.86,-97.3 154.14,-118.15 92.55,-29.12 245.2,33.47 280.53,123.27 13.07,33.23 12.34,74.51 8.62,111.18 -7.23,71.21 -20.54,141.83 -32.27,212.55 -6.41,38.65 -29.59,50.03 -68.53,35.51 -72.64,-27.07 -115.3,-97.16 -104.68,-174.91 5.9,-43.15 14.73,-85.89 21.7,-128.9 1.54,-9.45 1.98,-19.36 0.95,-28.85 -1.86,-17.17 -11.4,-21.78 -26.19,-12.47 -8.14,5.12 -17.21,10.08 -23.05,17.38 -81.46,101.85 -133.17,216.23 -139.08,347.89 -2.39,53.51 22.55,89.66 73.71,106.08 55.18,17.7 113.03,27.06 168.37,44.36 91.11,28.48 131.63,101.08 105.86,193.25 -9.66,34.54 -26.78,69.75 -49.36,97.41 -90.92,111.38 -291.18,153.27 -421.9,91.96 -56.81,-26.64 -83.96,-62.04 -99.49,-123.86z"/>
     <path class="fil6 str0" d="M1842.56 3039.11c3.87,-10.37 7.68,-20.75 11.6,-31.1 34.03,-89.61 63.9,-181.11 103.23,-268.33 44.71,-99.16 111.99,-101.33 192.74,-32.77 37.47,31.82 46.22,72.75 39.6,120.78 -14.25,103.57 -25.56,207.55 -38.05,311.36 -0.58,4.8 -1.09,9.66 -1.02,14.48 0.58,40.72 14.26,50.06 53.12,36.15 5.46,-1.95 10.51,-5 15.82,-7.4 20.33,-9.18 32.28,-2.4 34.05,19.55 3.91,48.9 -13.48,90.23 -50.71,121.09 -34.66,28.74 -74.95,34.59 -117.59,17.75 -72.01,-28.44 -120.78,-104.28 -116.2,-191.41 4.05,-77.25 14.58,-154.15 22.09,-231.22 0.99,-10.16 1.08,-20.42 1.59,-30.63 -2.93,-1.23 -5.86,-2.47 -8.79,-3.7 -6.55,11.35 -14.99,22.01 -19.33,34.14 -54.26,151.51 -108.33,303.09 -161.48,454.99 -15.17,43.34 -27.63,50.88 -70.49,35.53 -63.39,-22.69 -111.21,-91.37 -105.27,-158.93 15.25,-173.64 32.67,-347.08 49.29,-520.58 9.97,-104.12 19.94,-208.25 30.26,-312.34 3.48,-35.04 13.25,-42.21 47.16,-35.76 71.13,13.55 146.84,86.24 133.21,173.33 -22.91,146.26 -36.05,294.06 -53.1,441.24 -1.61,13.91 -1.72,27.99 -2.53,41.99 3.6,0.61 7.19,1.21 10.79,1.8z"/>
     <path class="fil6 str0" d="M3555.55 2879.03c-2.35,9.82 -5.73,19.52 -6.87,29.47 -6.34,55.78 -13.75,111.52 -17.47,167.5 -1.89,28.53 -16.63,34.9 -39.87,32.85 -82.94,-7.35 -141,-76.05 -132.96,-158.05 27.49,-280.42 55.34,-560.8 83.17,-841.2 3.54,-35.56 11.55,-41.4 46.65,-35.66 83.3,13.6 140.28,85.82 131.89,169.83 -12.7,127.16 -26.94,254.18 -39.84,381.32 -0.94,9.29 3.64,19.14 5.64,28.72 8.34,-5.51 19.11,-9.22 24.61,-16.78 66.46,-91.08 132.23,-182.67 197.97,-274.28 23.87,-33.25 43.64,-34.58 67.02,-0.5 39.46,57.53 51.57,119.63 3.67,183.49 -52.46,69.97 -105.82,139.33 -161.16,207.01 -17.27,21.11 -19.57,36.43 0.77,53.5 31.72,26.61 61.73,56.55 97.15,76.95 17.81,10.25 47.49,7.98 69.06,1.79 33.9,-9.72 46.35,-4.91 42.35,29.99 -11.39,98.87 -123.51,186.33 -231.97,121.51 -50.82,-30.37 -83.61,-77.04 -111.67,-127.63 -5.89,-10.62 -12.61,-20.78 -18.94,-31.15 -3.08,0.44 -6.14,0.89 -9.22,1.33z"/>
     <path class="fil6 str0" d="M2644.9 2604.87c2.51,-6.64 4.33,-9.98 5.03,-13.54 9.59,-49.26 25.41,-60.64 70.89,-38.29 33.96,16.7 65.64,41.14 92.41,68.03 13.39,13.45 20.36,40.69 18.59,60.66 -9.83,110.83 -23.23,221.35 -35.4,331.96 -0.74,6.74 -1.83,13.46 -2.13,20.21 -1.95,44.71 14.95,56.81 56.6,40.69 40.74,-15.77 51.94,-7.18 46.79,36.69 -6.35,54.11 -32.09,95.71 -83.47,116.65 -49.11,20.02 -90.77,0.8 -128.55,-30.88 -30.02,-25.19 -30.09,-25.11 -54.29,7.24 -78.27,104.64 -201.2,109.49 -288.48,11.5 -52.44,-58.88 -71.84,-130.36 -74.6,-206.43 -4.01,-110.59 17.13,-216.4 74.69,-312.34 38.45,-64.08 89.83,-114.04 169.44,-117.49 32.01,-1.38 64.61,8.27 96.75,13.96 11.84,2.1 23.12,7.25 35.73,11.37zm-182 486.1l0 0c4.81,14.91 9.58,36.92 18.92,56.79 10.07,21.46 29.55,23.89 44.83,7.01 15.98,-17.67 30.24,-38.21 40.14,-59.84 37.16,-81.09 55.47,-167.17 55.5,-256.1 0.01,-40.13 -5.26,-81.05 -14.38,-120.15 -6.74,-28.88 -28.05,-34.62 -50.76,-15.76 -17.39,14.44 -33.29,33.3 -43.41,53.45 -52.02,103.49 -64.55,213.7 -50.82,334.61z"/>
     <path class="fil6 str0" d="M3126.73 2590.71c6.61,-15.11 10.51,-24.19 14.55,-33.22 11.79,-26.41 20.12,-55.18 36.17,-78.69 35.46,-51.9 99.01,-48.98 131.37,5.25 25.93,43.44 30.64,91.85 20.51,140.85 -4.84,23.41 -19.74,32.44 -45.76,25.43 -75.54,-20.36 -134.31,17.74 -144.23,96.02 -17.04,134.51 -31.13,269.39 -46.3,404.14 -3.54,31.41 -11.4,39.64 -42.48,36.76 -65.41,-6.06 -140.54,-52.35 -130.92,-146.69 17.69,-173.4 33.68,-346.97 50.61,-520.46 2.96,-30.25 15.33,-38.77 45.21,-30.52 40.61,11.22 67.87,39.82 91.11,73.09 5.29,7.57 10.78,15.01 20.15,28.04z"/>
    </g>
   </g>
   <g>
    <g>
     <path class="fil0" d="M972.6 3349.25c2.81,-27.64 2.74,-55.99 9.19,-82.75 7.52,-31.3 25.82,-35.34 50.86,-14.84 59.05,48.34 124.5,83.61 201.52,90.25 28.44,2.46 58.22,-1.33 86.23,-7.52 12.67,-2.79 30.54,-17.53 31.68,-28.36 1.51,-14.45 -6.97,-35.35 -18.36,-44.5 -17.53,-14.08 -40.66,-21.97 -62.36,-29.92 -45.44,-16.68 -92.73,-28.85 -137.04,-47.97 -86.74,-37.43 -132.79,-106.87 -136.39,-200.15 -6.02,-156.01 36.42,-299.49 125.35,-427.91 38.22,-55.19 87.86,-97.31 154.14,-118.16 92.56,-29.12 245.2,33.48 280.53,123.27 13.08,33.23 12.34,74.51 8.62,111.18 -7.22,71.21 -20.54,141.83 -32.26,212.55 -6.42,38.66 -29.6,50.03 -68.54,35.52 -72.64,-27.07 -115.3,-97.17 -104.67,-174.92 5.89,-43.15 14.72,-85.89 21.7,-128.89 1.53,-9.45 1.98,-19.37 0.95,-28.86 -1.86,-17.16 -11.4,-21.78 -26.19,-12.47 -8.15,5.12 -17.22,10.09 -23.05,17.38 -81.47,101.85 -133.18,216.23 -139.08,347.89 -2.4,53.51 22.55,89.66 73.7,106.08 55.18,17.71 113.03,27.06 168.38,44.37 91.11,28.47 131.62,101.08 105.85,193.25 -9.65,34.53 -26.78,69.74 -49.36,97.4 -90.92,111.38 -291.18,153.28 -421.9,91.97 -56.8,-26.64 -83.95,-62.05 -99.49,-123.87z"/>
     <path class="fil0" d="M1812.87 3026.95c3.86,-10.37 7.67,-20.76 11.6,-31.11 34.03,-89.61 63.9,-181.1 103.22,-268.33 44.71,-99.16 112,-101.33 192.74,-32.77 37.47,31.82 46.22,72.75 39.6,120.79 -14.25,103.56 -25.56,207.54 -38.04,311.35 -0.58,4.8 -1.1,9.66 -1.03,14.49 0.58,40.71 14.27,50.05 53.13,36.15 5.46,-1.96 10.5,-5.01 15.81,-7.4 20.33,-9.19 32.29,-2.41 34.05,19.54 3.92,48.91 -13.48,90.24 -50.71,121.1 -34.65,28.73 -74.95,34.58 -117.59,17.74 -72.01,-28.44 -120.78,-104.28 -116.2,-191.4 4.06,-77.26 14.58,-154.16 22.09,-231.23 0.99,-10.16 1.09,-20.42 1.59,-30.63 -2.93,-1.23 -5.86,-2.47 -8.79,-3.7 -6.55,11.35 -14.99,22.02 -19.33,34.14 -54.26,151.52 -108.33,303.09 -161.48,454.99 -15.17,43.34 -27.63,50.88 -70.48,35.54 -63.4,-22.7 -111.21,-91.37 -105.28,-158.94 15.25,-173.63 32.67,-347.07 49.29,-520.58 9.98,-104.12 19.94,-208.25 30.27,-312.34 3.47,-35.04 13.24,-42.21 47.15,-35.75 71.13,13.54 146.85,86.23 133.21,173.32 -22.9,146.26 -36.05,294.07 -53.09,441.24 -1.62,13.91 -1.72,27.99 -2.54,42 3.6,0.6 7.2,1.21 10.8,1.8z"/>
     <path class="fil0" d="M3525.86 2866.86c-2.34,9.82 -5.73,19.51 -6.86,29.46 -6.35,55.79 -13.76,111.52 -17.47,167.5 -1.9,28.54 -16.64,34.91 -39.87,32.85 -82.95,-7.34 -141.01,-76.05 -132.97,-158.04 27.49,-280.43 55.35,-560.81 83.18,-841.2 3.53,-35.56 11.54,-41.41 46.64,-35.67 83.3,13.6 140.29,85.83 131.89,169.83 -12.7,127.17 -26.93,254.18 -39.84,381.33 -0.94,9.28 3.64,19.13 5.65,28.72 8.33,-5.51 19.1,-9.23 24.61,-16.78 66.45,-91.09 132.22,-182.68 197.97,-274.28 23.87,-33.26 43.63,-34.59 67.01,-0.51 39.47,57.53 51.58,119.63 3.68,183.5 -52.47,69.96 -105.83,139.32 -161.17,207 -17.26,21.12 -19.57,36.43 0.77,53.5 31.73,26.61 61.73,56.56 97.15,76.95 17.81,10.26 47.49,7.98 69.06,1.79 33.9,-9.72 46.36,-4.91 42.35,29.99 -11.38,98.87 -123.51,186.34 -231.97,121.51 -50.81,-30.36 -83.61,-77.03 -111.67,-127.63 -5.89,-10.62 -12.6,-20.78 -18.94,-31.15 -3.07,0.45 -6.14,0.89 -9.22,1.34z"/>
     <path class="fil0" d="M2615.21 2592.69c2.51,-6.64 4.33,-9.97 5.03,-13.54 9.59,-49.26 25.41,-60.64 70.89,-38.28 33.96,16.69 65.65,41.13 92.41,68.02 13.4,13.46 20.36,40.69 18.59,60.66 -9.82,110.83 -23.23,221.35 -35.4,331.97 -0.73,6.73 -1.83,13.45 -2.13,20.21 -1.95,44.7 14.96,56.8 56.6,40.68 40.75,-15.76 51.94,-7.18 46.79,36.69 -6.35,54.11 -32.08,95.72 -83.47,116.65 -49.1,20.03 -90.77,0.8 -128.54,-30.88 -30.03,-25.19 -30.1,-25.11 -54.29,7.24 -78.28,104.64 -201.2,109.5 -288.48,11.51 -52.45,-58.89 -71.85,-130.37 -74.61,-206.43 -4.01,-110.59 17.13,-216.4 74.7,-312.34 38.44,-64.08 89.82,-114.05 169.43,-117.5 32.01,-1.38 64.62,8.27 96.75,13.96 11.84,2.1 23.13,7.26 35.73,11.37zm-181.99 486.1l0 0c4.8,14.92 9.57,36.93 18.91,56.79 10.08,21.47 29.56,23.89 44.83,7.01 15.99,-17.67 30.24,-38.21 40.15,-59.84 37.16,-81.09 55.46,-167.17 55.49,-256.09 0.02,-40.14 -5.25,-81.06 -14.38,-120.15 -6.74,-28.88 -28.04,-34.62 -50.76,-15.76 -17.39,14.43 -33.29,33.3 -43.41,53.44 -52.02,103.5 -64.55,213.7 -50.81,334.61z"/>
     <path class="fil0" d="M3097.03 2578.53c6.61,-15.11 10.52,-24.19 14.55,-33.21 11.8,-26.41 20.12,-55.19 36.18,-78.7 35.45,-51.9 99,-48.97 131.37,5.25 25.93,43.45 30.63,91.85 20.51,140.85 -4.84,23.41 -19.75,32.44 -45.76,25.44 -75.55,-20.36 -134.31,17.73 -144.23,96.01 -17.04,134.52 -31.14,269.39 -46.31,404.14 -3.54,31.41 -11.4,39.64 -42.47,36.76 -65.42,-6.06 -140.55,-52.35 -130.92,-146.69 17.69,-173.39 33.67,-346.97 50.61,-520.45 2.95,-30.26 15.32,-38.78 45.21,-30.52 40.6,11.22 67.87,39.81 91.1,73.09 5.29,7.57 10.78,15 20.15,28.03z"/>
    </g>
   </g>
   <g>
    <g>
     <path class="fil1" d="M921.62 3323.79c2.81,-27.65 2.74,-55.99 9.18,-82.76 7.53,-31.3 25.82,-35.34 50.87,-14.84 59.05,48.34 124.5,83.61 201.52,90.25 28.44,2.46 58.22,-1.33 86.23,-7.51 12.67,-2.79 30.54,-17.54 31.68,-28.37 1.51,-14.45 -6.97,-35.35 -18.36,-44.5 -17.53,-14.08 -40.67,-21.97 -62.36,-29.92 -45.44,-16.68 -92.73,-28.85 -137.05,-47.97 -86.73,-37.43 -132.78,-106.87 -136.38,-200.15 -6.02,-156 36.41,-299.49 125.35,-427.91 38.22,-55.19 87.86,-97.31 154.14,-118.16 92.55,-29.11 245.2,33.48 280.53,123.28 13.07,33.22 12.34,74.5 8.62,111.17 -7.23,71.21 -20.54,141.83 -32.26,212.56 -6.42,38.65 -29.6,50.02 -68.55,35.51 -72.63,-27.07 -115.29,-97.17 -104.66,-174.92 5.89,-43.14 14.72,-85.89 21.7,-128.89 1.53,-9.45 1.97,-19.37 0.94,-28.85 -1.86,-17.17 -11.4,-21.79 -26.18,-12.48 -8.15,5.12 -17.22,10.09 -23.05,17.38 -81.47,101.85 -133.18,216.23 -139.08,347.89 -2.4,53.51 22.55,89.67 73.7,106.08 55.18,17.71 113.03,27.06 168.37,44.37 91.12,28.47 131.63,101.08 105.86,193.25 -9.66,34.53 -26.78,69.74 -49.36,97.41 -90.92,111.37 -291.18,153.27 -421.9,91.96 -56.81,-26.64 -83.96,-62.05 -99.49,-123.86z"/>
     <path class="fil1" d="M1761.89 3001.48c3.86,-10.37 7.67,-20.76 11.6,-31.11 34.03,-89.61 63.89,-181.1 103.22,-268.33 44.71,-99.16 112,-101.33 192.74,-32.76 37.47,31.81 46.22,72.74 39.6,120.78 -14.25,103.56 -25.57,207.54 -38.05,311.35 -0.58,4.81 -1.09,9.66 -1.02,14.49 0.58,40.71 14.26,50.05 53.12,36.15 5.46,-1.96 10.51,-5.01 15.82,-7.4 20.33,-9.19 32.28,-2.4 34.05,19.54 3.92,48.91 -13.48,90.24 -50.71,121.1 -34.66,28.73 -74.95,34.59 -117.59,17.74 -72.01,-28.43 -120.79,-104.28 -116.21,-191.4 4.06,-77.26 14.58,-154.15 22.09,-231.23 0.99,-10.16 1.08,-20.42 1.59,-30.63 -2.93,-1.23 -5.86,-2.47 -8.79,-3.7 -6.55,11.35 -14.99,22.02 -19.33,34.15 -54.26,151.51 -108.33,303.08 -161.48,454.98 -15.17,43.34 -27.63,50.88 -70.48,35.54 -63.4,-22.7 -111.21,-91.37 -105.28,-158.94 15.25,-173.63 32.67,-347.07 49.29,-520.58 9.97,-104.12 19.94,-208.25 30.27,-312.33 3.47,-35.05 13.24,-42.22 47.15,-35.76 71.13,13.54 146.85,86.23 133.21,173.32 -22.9,146.27 -36.05,294.07 -53.1,441.24 -1.61,13.91 -1.72,27.99 -2.53,42 3.6,0.6 7.19,1.21 10.8,1.8z"/>
     <path class="fil1" d="M3474.88 2841.39c-2.34,9.82 -5.73,19.52 -6.87,29.47 -6.34,55.78 -13.75,111.52 -17.47,167.49 -1.89,28.54 -16.63,34.91 -39.86,32.85 -82.95,-7.34 -141.01,-76.04 -132.97,-158.04 27.49,-280.43 55.35,-560.81 83.17,-841.2 3.54,-35.56 11.55,-41.41 46.65,-35.67 83.3,13.6 140.28,85.83 131.89,169.83 -12.7,127.17 -26.93,254.18 -39.84,381.33 -0.94,9.28 3.64,19.13 5.65,28.72 8.33,-5.51 19.1,-9.23 24.61,-16.78 66.45,-91.09 132.22,-182.68 197.97,-274.28 23.87,-33.26 43.63,-34.59 67.01,-0.5 39.47,57.52 51.57,119.62 3.68,183.49 -52.47,69.96 -105.83,139.32 -161.17,207 -17.27,21.12 -19.57,36.43 0.77,53.5 31.72,26.62 61.73,56.56 97.15,76.95 17.81,10.26 47.49,7.98 69.06,1.79 33.89,-9.72 46.35,-4.91 42.35,29.99 -11.39,98.87 -123.51,186.34 -231.97,121.51 -50.82,-30.36 -83.61,-77.03 -111.67,-127.63 -5.89,-10.62 -12.6,-20.77 -18.94,-31.15 -3.08,0.45 -6.14,0.89 -9.22,1.34z"/>
     <path class="fil1" d="M2564.23 2567.24c2.51,-6.65 4.33,-9.98 5.03,-13.54 9.59,-49.27 25.41,-60.65 70.89,-38.29 33.96,16.69 65.64,41.13 92.41,68.02 13.4,13.46 20.36,40.69 18.59,60.67 -9.83,110.82 -23.23,221.34 -35.4,331.96 -0.74,6.73 -1.83,13.45 -2.13,20.21 -1.95,44.71 14.95,56.8 56.6,40.68 40.75,-15.76 51.94,-7.17 46.79,36.69 -6.35,54.12 -32.09,95.72 -83.47,116.66 -49.11,20.02 -90.77,0.79 -128.54,-30.89 -30.03,-25.19 -30.1,-25.1 -54.3,7.24 -78.27,104.65 -201.2,109.5 -288.47,11.51 -52.45,-58.89 -71.85,-130.37 -74.61,-206.43 -4.01,-110.59 17.13,-216.4 74.69,-312.34 38.45,-64.08 89.83,-114.05 169.44,-117.5 32.01,-1.38 64.61,8.27 96.75,13.96 11.84,2.1 23.13,7.26 35.73,11.38zm-182 486.09l0 0c4.81,14.92 9.58,36.93 18.92,56.79 10.08,21.47 29.55,23.89 44.83,7.02 15.98,-17.68 30.24,-38.22 40.15,-59.85 37.16,-81.09 55.46,-167.16 55.49,-256.09 0.01,-40.13 -5.26,-81.06 -14.38,-120.15 -6.75,-28.88 -28.04,-34.62 -50.76,-15.76 -17.39,14.43 -33.29,33.3 -43.41,53.44 -52.02,103.5 -64.56,213.71 -50.82,334.61z"/>
     <path class="fil1" d="M3046.05 2553.07c6.61,-15.11 10.52,-24.18 14.55,-33.21 11.8,-26.41 20.12,-55.19 36.17,-78.7 35.46,-51.9 99.01,-48.97 131.37,5.26 25.93,43.44 30.64,91.84 20.51,140.84 -4.83,23.42 -19.74,32.44 -45.76,25.44 -75.54,-20.36 -134.3,17.73 -144.23,96.01 -17.04,134.52 -31.13,269.39 -46.3,404.15 -3.54,31.4 -11.4,39.63 -42.47,36.75 -65.42,-6.06 -140.55,-52.34 -130.93,-146.69 17.7,-173.39 33.68,-346.97 50.62,-520.45 2.95,-30.26 15.32,-38.78 45.2,-30.52 40.61,11.22 67.87,39.81 91.11,73.09 5.29,7.57 10.78,15 20.15,28.03z"/>
    </g>
   </g>
   <g>
    <g>
     <path class="fil0" d="M776.26 2438.67c-23.29,-15.8 -47.38,-21.25 -69.63,-15.83l-6.97 1.28c-4.97,0.87 -9.12,1.65 -13.09,2.87 -106.65,32.55 -213.23,65.12 -319.79,97.98 -10.67,3.29 -25.54,9.35 -31.5,23.83 -6.04,14.65 0.45,29.83 5.87,40 33.96,63.76 91.1,89.2 153.25,68.14 2.67,-0.9 4.84,-1.62 6.64,-2.14 -0.17,2.23 -0.45,5.04 -0.87,8.65l-13.86 115.29c-12.84,106.84 -25.67,213.65 -38.86,320.46 -4.91,39.8 11.28,61.54 25.7,72.76 24.63,19.22 47.54,33.03 69.95,42.22 6.94,2.86 15.93,5.93 25.09,5.93 5.64,0 11.35,-1.16 16.73,-4.25 14.29,-8.26 18.35,-25.8 20.25,-40.18l10.96 -81.63c21.48,-160.03 42.92,-320.05 63.73,-480.17 2.03,-15.58 6.81,-19.19 17.52,-21.84 18.44,-4.61 36.79,-9.57 55.11,-14.54 18.83,-5.09 37.66,-10.23 56.59,-14.9 19.74,-4.87 29.51,-19.09 26.8,-38.96 -3.8,-27.99 -29.44,-64.53 -59.62,-84.98z"/>
     <path class="fil0" d="M183.31 2511.64c-13.16,-2.21 -26.87,-3.7 -37.6,4.29 -10.81,8.03 -13.35,21.64 -15,34.86l-23.83 190.57c-17.28,138.32 -34.54,276.61 -52.17,414.86 -4.36,34.09 5.06,60.4 27.95,78.17 22.25,17.35 44.86,30.68 67.12,39.6 7.03,2.84 16.09,5.87 25.32,5.87 5.77,0 11.57,-1.2 17.03,-4.35 14.19,-8.22 18.21,-25.47 20.12,-39.53 20.16,-147.1 40.19,-294.15 60.18,-441.21l22.49 -166.57 -0.36 -2.29c-8.22,-55.76 -56.04,-104.88 -111.23,-114.26z"/>
    </g>
   </g>
   <g>
    <g>
     <path class="fil1" d="M722.59 2408.79c-23.28,-15.8 -47.37,-21.26 -69.62,-15.84l-6.97 1.29c-4.97,0.87 -9.12,1.65 -13.09,2.87 -106.65,32.54 -213.24,65.11 -319.79,97.97 -10.67,3.29 -25.53,9.36 -31.5,23.84 -6.04,14.64 0.45,29.83 5.87,39.99 33.95,63.76 91.1,89.21 153.25,68.14 2.67,-0.9 4.83,-1.61 6.64,-2.13 -0.17,2.22 -0.45,5.03 -0.87,8.64l-13.86 115.29c-12.84,106.85 -25.67,213.65 -38.87,320.47 -4.9,39.8 11.29,61.53 25.71,72.75 24.64,19.22 47.53,33.03 69.95,42.22 6.94,2.87 15.93,5.94 25.09,5.94 5.64,0 11.35,-1.17 16.73,-4.26 14.29,-8.26 18.35,-25.8 20.25,-40.18l10.96 -81.63c21.48,-160.02 42.92,-320.05 63.73,-480.17 2.04,-15.58 6.81,-19.18 17.51,-21.83 18.45,-4.61 36.8,-9.58 55.12,-14.55 18.83,-5.09 37.66,-10.22 56.59,-14.89 19.73,-4.87 29.51,-19.1 26.81,-38.96 -3.81,-28 -29.45,-64.54 -59.64,-84.98z"/>
     <path class="fil1" d="M129.65 2481.77c-13.16,-2.22 -26.87,-3.7 -37.6,4.29 -10.81,8.02 -13.35,21.63 -14.99,34.86l-23.84 190.56c-17.28,138.32 -34.54,276.61 -52.17,414.86 -4.36,34.09 5.06,60.4 27.95,78.18 22.25,17.34 44.86,30.67 67.12,39.6 7.03,2.83 16.09,5.87 25.32,5.87 5.77,0 11.57,-1.2 17.03,-4.35 14.19,-8.23 18.21,-25.48 20.12,-39.54 20.15,-147.09 40.18,-294.15 60.17,-441.21l22.49 -166.57 -0.35 -2.28c-8.23,-55.76 -56.05,-104.88 -111.24,-114.26z"/>
    </g>
   </g>
  </g>
  <path class="fil7" d="M1137.02 2261.56c25.28,-3.82 48.87,13.55 52.69,38.82 3.83,25.28 -13.55,48.88 -38.83,52.7 -25.27,3.83 -48.87,-13.56 -52.7,-38.84 -3.83,-25.27 13.57,-48.85 38.84,-52.68z"/>
  <path class="fil7" d="M2696.96 572.61c25.27,-3.83 48.86,13.55 52.69,38.81 3.83,25.28 -13.56,48.88 -38.83,52.71 -25.28,3.82 -48.88,-13.57 -52.71,-38.85 -3.82,-25.26 13.57,-48.84 38.85,-52.67z"/>
  <g id="_2953142805248">
   <path class="fil0" d="M1063.4 2113.49l-103.06 100.29 -17.35 -29.05 44.1 -38.69c12.66,-11.19 26.68,-22.95 37.63,-32.16l-0.2 -0.34c-14.21,5.81 -30.32,11.57 -46.91,17.39l-55.27 19.24 -17.25 -28.88 44.85 -39.86c12.49,-11.09 24.15,-20.7 36.43,-30.49l-0.2 -0.33c-14.44,6.21 -30.12,11.94 -45.87,17.97l-55.03 19.59 -16.5 -27.63 138.64 -40.76 17.56 29.4 -45.61 41.03c-10.72,9.55 -20.79,18.23 -33.64,27.84l0.2 0.37c14.83,-5.97 27.4,-10.82 41.22,-15.22l58.5 -19.48 17.75 29.77z"/>
   <polygon class="fil0" points="895.61,1914.01 915.46,1961.42 946.06,1948.6 923.9,1895.67 947.78,1885.66 982.17,1967.87 853.33,2021.78 820.07,1942.26 843.96,1932.27 865,1982.52 891.77,1971.33 871.92,1923.93 "/>
   <path class="fil0" d="M805.63 1897.58c-3.91,-7.52 -9.78,-23.32 -14.16,-38.48 -5.37,-18.54 -6.88,-30.43 -3.94,-41.87 2.29,-10.81 9.5,-20.25 21.65,-23.78 11.94,-3.47 25.14,0.28 35.12,13.81l0.4 -0.12c-0.25,-16.56 8.01,-31.27 25.35,-36.31 12.19,-3.51 23.37,-0.71 32.56,5.7 10.6,7.52 19.74,22.59 27.46,49.32 4.35,14.94 6.57,26.41 7.55,33.47l-132 38.25zm42.71 -45.01l0 0 -2.88 -9.97c-4.61,-15.95 -13.67,-22.62 -23.64,-19.72 -10.16,2.95 -13.32,12.29 -9.33,26.02 1.9,6.58 3.42,10.26 4.58,12.74l31.28 -9.06zm59.64 -17.27l0 0c-0.48,-3.12 -1.53,-6.7 -3.03,-11.88 -4,-13.76 -12.68,-24.42 -26.86,-20.31 -13.54,3.93 -15.42,17.65 -11,32.79l2.98 10.38 37.91 -10.97z"/>
   <path class="fil0" d="M884.86 1594.39c-2.79,3.21 -5.59,6.43 -8.94,10.12 7.96,8.35 14.46,20.39 16.21,36.9 3.58,33.65 -14.88,50.62 -34.27,52.67 -18.38,1.96 -32.72,-7.19 -42.67,-22.2l-0.81 0.08c-5.97,6.7 -15.8,12.33 -25.71,13.36 -17.57,1.87 -38.22,-9.94 -41.17,-37.8 -2.26,-21.46 8.59,-39.09 28.63,-41.22 14.02,-1.48 26.89,5.51 38.6,23.68l0.84 0.12c8.05,-8.98 17.25,-18.53 23.56,-26.07 -9.27,-4.66 -22.55,-7.64 -35.1,-8.19l-2.99 -28.08c21.46,1.5 40.15,6.61 55.31,17.54 8.04,-8.79 16.26,-17.81 24.65,-27.45l3.85 36.55zm-102.08 63.19l0 0c7.03,-0.75 12.87,-4.7 19.05,-11.61 -8.08,-9.38 -14.01,-13.97 -22.06,-13.12 -6.62,0.71 -13.42,5.38 -12.55,13.64 0.83,8.06 8.37,11.85 15.56,11.09zm77.14 -36.55l0 0c-7.76,9.58 -19.15,22.27 -30.74,34.97 4.74,5.35 11.28,9.88 20.37,8.92 11.76,-1.24 20.93,-11.18 19.41,-25.45 -0.87,-8.24 -4.69,-14.73 -9.04,-18.44z"/>
   <path class="fil0" d="M836.87 1364.77c-16.8,-0.86 -37.08,-2.03 -57.35,-3.81l-0.04 0.62c17.36,5.92 36.7,13.45 52.54,20.26l52.84 21.73 -2.16 24.59 -55.25 10.11c-16.71,3.11 -36.99,6.08 -55.43,7.79l-0.04 0.42c18.71,2.49 40.16,5 57.42,7.57l52.66 7.14 -2.57 29.13 -138.47 -21.17 3.72 -41.94 47.69 -9.54c16.5,-2.9 34.21,-5.71 50.8,-7.38l0.08 -0.61c-15.78,-5.36 -33.75,-11.74 -48.82,-17.65l-44.95 -18.97 3.62 -41.09 139.9 4.63 -2.71 30.8 -53.48 -2.66z"/>
   <path class="fil0" d="M860.63 1166.47c44.52,11.02 64.84,44.7 55.03,84.4 -9.95,40.32 -46.23,56.38 -84.92,46.8 -40.72,-10.06 -64.72,-43.6 -54.79,-83.71 10.3,-41.71 47.17,-56.77 84.68,-47.49zm-22.47 98.6l0 0c26.6,6.59 48.44,-1.27 53.53,-21.84 5.12,-20.74 -11.7,-37.53 -38.07,-44.06 -24.42,-6.03 -48.25,0.49 -53.5,21.63 -5.12,20.76 11.63,37.74 38.05,44.27z"/>
   <path class="fil0" d="M811.08 1107.43c1.49,-8.32 6.5,-24.4 12.31,-39.05 7.08,-17.95 13.15,-28.26 22.47,-35.5 8.41,-7.16 19.88,-10.21 31.65,-5.57 11.57,4.57 19.7,15.58 19.32,32.36l0.36 0.16c9.92,-13.26 25.44,-19.83 42.22,-13.2 11.77,4.62 18.91,13.69 22.25,24.39 3.8,12.4 1.79,29.9 -8.41,55.76 -5.7,14.46 -10.92,24.88 -14.49,31.06l-127.68 -50.41zm61.25 -9.48l0 0 3.8 -9.65c6.12,-15.42 3.01,-26.23 -6.64,-30.03 -9.82,-3.89 -18.01,1.59 -23.26,14.89 -2.52,6.37 -3.57,10.17 -4.16,12.84l30.27 11.95zm57.69 22.76l0 0c1.51,-2.73 2.89,-6.2 4.86,-11.21 5.25,-13.33 4.91,-27.06 -8.82,-32.47 -13.12,-5.16 -22.96,4.53 -28.74,19.19l-3.97 10.02 36.66 14.46z"/>
   <polygon class="fil0" points="880.04,945.02 1004.95,1008.03 990.64,1036.39 865.75,973.39 "/>
   <polygon class="fil0" points="902.03,903.75 918.68,876.72 1015.18,936.07 1044.31,888.68 1066.94,902.6 1021.16,977.02 "/>
   <polygon class="fil0" points="1085.44,779.81 1054.09,820.59 1080.4,840.83 1115.42,795.28 1136,811.09 1081.57,881.8 970.76,796.55 1023.38,728.13 1043.92,743.94 1010.65,787.2 1033.67,804.91 1065.07,764.11 "/>
   <path class="fil0" d="M1095.2 650.87c7.27,-9.25 17.74,-20.26 29.48,-31.07 19.55,-17.99 35.45,-26.14 52.24,-27.8 18.01,-1.89 36.38,4.61 53.1,22.77 18.12,19.69 23.43,39.88 21.24,57.41 -2.54,18.99 -15.11,38.43 -35.25,56.98 -12.05,11.09 -21.3,18.19 -27.83,22.76l-92.98 -101.06zm100.62 62.47l0 0c2.42,-1.37 5.61,-4.31 8.5,-6.99 21.21,-19.23 24.27,-43.47 1.68,-68.06 -19.52,-21.52 -42.44,-21.3 -62.46,-2.88 -5.17,4.76 -8.1,8.31 -9.68,10.59l61.96 67.33z"/>
   <polygon class="fil0" points="1334.19,556.33 1292.47,586.29 1311.8,613.22 1358.42,579.76 1373.51,600.79 1301.14,652.76 1219.71,539.31 1289.7,489.05 1304.8,510.08 1260.56,541.87 1277.46,565.43 1319.18,535.47 "/>
   <path class="fil0" d="M1427.24 568.88l-106.75 -100.93 30.36 -16.72 43.44 43.6c12.18,12.25 23.71,24.15 35.03,37.83l0.55 -0.3c-5.02,-16.43 -9.22,-33.08 -12.75,-49.38l-13.18 -60.98 29.44 -16.23 26.22 145.27 -32.37 17.83z"/>
   <polygon class="fil0" points="1575.31,434.47 1527.67,453.79 1540.12,484.55 1593.34,462.97 1603.08,486.98 1520.44,520.48 1467.96,390.95 1547.92,358.56 1557.66,382.57 1507.11,403.06 1518,429.96 1565.67,410.65 "/>
   <polygon class="fil0" points="1591.8,343.57 1622.33,334.82 1653.58,443.69 1707.02,428.35 1714.35,453.87 1630.41,477.96 "/>
   <path class="fil0" d="M1845.15 358.62c7.38,45.17 -15.53,77.06 -55.79,83.64 -40.88,6.7 -69.86,-20.25 -76.29,-59.5 -6.74,-41.3 14.58,-76.49 55.24,-83.15 42.33,-6.94 70.6,20.97 76.84,59zm-99.27 18.14l0 0c4.44,26.98 20.22,43.92 41.07,40.5 21.07,-3.45 29.83,-25.45 25.46,-52.24 -4.07,-24.72 -19.41,-44.04 -40.88,-40.54 -21.04,3.46 -30.04,25.5 -25.66,52.28z"/>
   <path class="fil0" d="M1879.57 289.79c9.7,-1.97 23.32,-3.64 42.6,-4.25 19.52,-0.62 33.53,2.68 43.08,9.85 9.15,6.77 15.53,18.2 15.95,31.87 0.45,13.7 -3.74,25.44 -11.82,33.59 -10.46,10.5 -26.28,15.57 -44.94,16.16 -4.12,0.13 -7.87,0.03 -10.81,-0.28l1.61 49.96 -31.33 0.99 -4.34 -137.88zm33.31 62.47l0 0c2.7,0.52 6.04,0.63 10.6,0.48 16.77,-0.52 26.89,-9.36 26.44,-23.66 -0.42,-12.86 -9.57,-20.25 -25.34,-19.75 -6.42,0.21 -10.75,0.96 -13.01,1.67l1.3 41.27z"/>
   <path class="fil0" d="M2130.08 382.83c1.1,-16.74 2.61,-37.01 4.68,-57.21l-0.61 -0.06c-6.16,17.26 -14.01,36.45 -21.04,52.16l-22.53 52.44 -24.51 -2.56 -9.25 -55.3c-2.85,-16.75 -5.54,-37.02 -6.96,-55.5l-0.4 -0.04c-2.77,18.66 -5.63,40.01 -8.46,57.22l-7.95 52.49 -29.02 -3.02 23.27 -137.95 41.81 4.34 8.78 47.78c2.66,16.51 5.19,34.27 6.59,50.86l0.64 0.08c5.58,-15.69 12.23,-33.51 18.33,-48.49l19.65 -44.62 41 4.26 -6.82 139.65 -30.69 -3.18 3.46 -53.37z"/>
   <polygon class="fil0" points="2281.74,409.6 2231.76,397.25 2223.77,429.49 2279.61,443.29 2273.38,468.48 2186.71,447.06 2220.3,311.21 2304.16,331.94 2297.92,357.13 2244.91,344.03 2237.94,372.25 2287.92,384.61 "/>
   <path class="fil0" d="M2299.7 475.95l49.87 -130.73 34.55 13.2 8.85 58.26c2.52,16.73 4.03,35.99 4.24,52.95l0.58 0.23c4.64,-18 10.79,-35.88 18.29,-55.46l14.56 -38.21 27.18 10.36 -49.9 130.73 -31.05 -11.87 -8.66 -61.07c-2.44,-16.94 -4.52,-37.06 -5.09,-54.82l-0.65 -0.04c-5.8,17.57 -12.44,36.14 -20.61,57.46l-15.01 39.38 -27.15 -10.37z"/>
   <polygon class="fil0" points="2515.08,444.65 2481.93,426.97 2494.43,403.53 2589.33,454.12 2576.83,477.57 2543.13,459.59 2489.79,559.61 2461.78,544.67 "/>
  </g>
 </g>
</svg>
