<?xml version="1.0" encoding="UTF-8"?>
<!DOCTYPE svg PUBLIC "-//W3C//DTD SVG 1.1//EN" "http://www.w3.org/Graphics/SVG/1.1/DTD/svg11.dtd">
<!-- Creator: CorelDRAW 2017 -->
<svg xmlns="http://www.w3.org/2000/svg" xml:space="preserve" width="39.7878mm" height="14.9728mm" version="1.1" style="shape-rendering:geometricPrecision; text-rendering:geometricPrecision; image-rendering:optimizeQuality; fill-rule:evenodd; clip-rule:evenodd"
viewBox="0 0 3818.53 1436.97"
 xmlns:xlink="http://www.w3.org/1999/xlink">
 <defs>
  <style type="text/css">
   <![CDATA[
    .fil0 {fill:#F6ECDA;fill-rule:nonzero}
    .fil1 {fill:#BF3838;fill-rule:nonzero}
   ]]>
  </style>
 </defs>
 <g id="__x2018_лой_x0020_1">
  <metadata id="CorelCorpID_0Corel-Layer"/>
  <g id="_2953132013168">
   <g>
    <path class="fil0" d="M952.68 1287.95c2.75,-27.07 2.69,-54.84 9,-81.06 7.37,-30.66 25.29,-34.62 49.82,-14.54 57.84,47.35 121.95,81.89 197.4,88.4 27.86,2.41 57.03,-1.31 84.47,-7.36 12.41,-2.74 29.91,-17.17 31.03,-27.77 1.48,-14.16 -6.82,-34.63 -17.99,-43.59 -17.17,-13.79 -39.83,-21.52 -61.09,-29.31 -44.51,-16.33 -90.83,-28.25 -134.24,-46.99 -84.96,-36.66 -130.07,-104.68 -133.59,-196.05 -5.89,-152.82 35.67,-293.36 122.78,-419.14 37.44,-54.06 86.06,-95.32 150.98,-115.74 90.67,-28.52 240.18,32.79 274.79,120.74 12.81,32.55 12.08,72.99 8.45,108.9 -7.07,69.75 -20.12,138.93 -31.6,208.19 -6.29,37.87 -28.99,49 -67.13,34.79 -71.15,-26.52 -112.94,-95.18 -102.53,-171.34 5.77,-42.27 14.42,-84.13 21.26,-126.25 1.5,-9.25 1.94,-18.97 0.93,-28.27 -1.82,-16.8 -11.17,-21.33 -25.65,-12.22 -7.98,5.02 -16.87,9.89 -22.58,17.03 -79.8,99.76 -130.46,211.8 -136.23,340.76 -2.35,52.41 22.09,87.82 72.19,103.91 54.05,17.35 110.71,26.51 164.93,43.46 89.24,27.89 128.92,99 103.68,189.3 -9.45,33.82 -26.23,68.31 -48.35,95.41 -89.05,109.1 -285.21,150.14 -413.26,90.09 -55.64,-26.09 -82.23,-60.78 -97.45,-121.33z"/>
    <path class="fil0" d="M1775.74 972.25c3.78,-10.15 7.51,-20.34 11.36,-30.47 33.33,-87.78 62.59,-177.39 101.11,-262.83 43.79,-97.12 109.71,-99.25 188.79,-32.1 36.7,31.17 45.27,71.26 38.79,118.31 -13.95,101.44 -25.04,203.29 -37.26,304.97 -0.57,4.7 -1.07,9.46 -1.01,14.19 0.57,39.88 13.97,49.02 52.05,35.41 5.35,-1.92 10.29,-4.9 15.49,-7.25 19.91,-9 31.63,-2.36 33.35,19.14 3.84,47.91 -13.21,88.39 -49.68,118.62 -33.94,28.14 -73.42,33.87 -115.19,17.38 -70.53,-27.86 -118.31,-102.14 -113.82,-187.48 3.97,-75.67 14.28,-151 21.64,-226.49 0.97,-9.95 1.07,-20 1.55,-30 -2.87,-1.21 -5.74,-2.42 -8.61,-3.63 -6.41,11.11 -14.68,21.56 -18.94,33.44 -53.15,148.41 -106.11,296.88 -158.17,445.67 -14.86,42.45 -27.06,49.84 -69.03,34.81 -62.1,-22.24 -108.93,-89.49 -103.12,-155.69 14.93,-170.07 32,-339.96 48.28,-509.92 9.78,-101.99 19.53,-203.98 29.65,-305.94 3.4,-34.32 12.97,-41.34 46.18,-35.02 69.68,13.26 143.84,84.47 130.48,169.77 -22.43,143.27 -35.31,288.04 -52,432.2 -1.58,13.63 -1.69,27.42 -2.49,41.14 3.52,0.59 7.05,1.18 10.58,1.77z"/>
    <path class="fil0" d="M3453.63 815.44c-2.29,9.62 -5.61,19.11 -6.72,28.86 -6.22,54.65 -13.47,109.24 -17.11,164.06 -1.86,27.96 -16.3,34.19 -39.05,32.18 -81.25,-7.19 -138.12,-74.49 -130.24,-154.8 26.93,-274.68 54.21,-549.33 81.48,-823.97 3.46,-34.83 11.31,-40.56 45.68,-34.94 81.6,13.32 137.41,84.07 129.19,166.35 -12.44,124.56 -26.38,248.97 -39.02,373.51 -0.92,9.09 3.56,18.73 5.54,28.13 8.16,-5.39 18.7,-9.04 24.11,-16.44 65.09,-89.23 129.51,-178.94 193.91,-268.66 23.38,-32.58 42.74,-33.88 65.64,-0.5 38.66,56.35 50.52,117.18 3.61,179.74 -51.39,68.52 -103.66,136.46 -157.86,202.76 -16.91,20.69 -19.17,35.68 0.76,52.4 31.08,26.07 60.46,55.4 95.16,75.38 17.45,10.05 46.52,7.81 67.64,1.76 33.21,-9.52 45.41,-4.81 41.48,29.38 -11.14,96.85 -120.98,182.52 -227.21,119.02 -49.77,-29.74 -81.89,-75.45 -109.38,-125.01 -5.77,-10.4 -12.34,-20.36 -18.55,-30.51 -3,0.44 -6.02,0.87 -9.03,1.31z"/>
    <path class="fil0" d="M2561.63 546.89c2.46,-6.51 4.24,-9.77 4.92,-13.26 9.4,-48.25 24.89,-59.4 69.44,-37.5 33.26,16.34 64.3,40.29 90.52,66.62 13.13,13.19 19.94,39.86 18.21,59.42 -9.62,108.56 -22.76,216.81 -34.67,325.17 -0.72,6.59 -1.79,13.18 -2.08,19.8 -1.91,43.78 14.65,55.64 55.44,39.85 39.91,-15.44 50.87,-7.03 45.83,35.94 -6.22,53.01 -31.42,93.76 -81.76,114.26 -48.09,19.62 -88.91,0.79 -125.91,-30.25 -29.42,-24.67 -29.48,-24.6 -53.18,7.09 -76.67,102.5 -197.08,107.26 -282.57,11.28 -51.37,-57.68 -70.38,-127.7 -73.08,-202.2 -3.93,-108.32 16.78,-211.96 73.17,-305.94 37.65,-62.77 87.98,-111.71 165.96,-115.09 31.35,-1.35 63.29,8.1 94.77,13.68 11.59,2.05 22.66,7.11 35,11.13zm-178.26 476.14l0 0c4.7,14.62 9.38,36.17 18.52,55.63 9.88,21.03 28.95,23.4 43.91,6.86 15.66,-17.3 29.62,-37.43 39.33,-58.61 36.4,-79.43 54.32,-163.75 54.35,-250.84 0.02,-39.32 -5.14,-79.4 -14.09,-117.69 -6.6,-28.29 -27.47,-33.91 -49.72,-15.44 -17.04,14.14 -32.61,32.62 -42.53,52.34 -50.95,101.38 -63.23,209.33 -49.77,327.75z"/>
    <path class="fil0" d="M3033.59 533.02c6.48,-14.8 10.31,-23.7 14.25,-32.53 11.56,-25.86 19.71,-54.06 35.44,-77.08 34.72,-50.84 96.97,-47.97 128.68,5.14 25.39,42.56 30,89.96 20.09,137.96 -4.74,22.93 -19.35,31.78 -44.82,24.91 -74,-19.94 -131.56,17.37 -141.27,94.04 -16.69,131.76 -30.5,263.88 -45.36,395.86 -3.46,30.77 -11.16,38.83 -41.6,36.01 -64.08,-5.93 -137.67,-51.28 -128.24,-143.69 17.32,-169.84 32.98,-339.87 49.57,-509.79 2.89,-29.64 15.01,-37.99 44.28,-29.9 39.77,10.99 66.48,38.99 89.24,71.6 5.18,7.42 10.56,14.69 19.74,27.46z"/>
   </g>
  </g>
  <g id="_2953132012944">
   <g>
    <path class="fil1" d="M902.74 1263.01c2.75,-27.08 2.69,-54.84 8.99,-81.07 7.38,-30.66 25.29,-34.62 49.83,-14.54 57.84,47.35 121.95,81.89 197.4,88.4 27.86,2.41 57.03,-1.31 84.47,-7.35 12.41,-2.74 29.91,-17.18 31.03,-27.78 1.48,-14.16 -6.82,-34.63 -17.99,-43.59 -17.17,-13.79 -39.84,-21.52 -61.09,-29.31 -44.51,-16.33 -90.83,-28.25 -134.25,-46.99 -84.95,-36.66 -130.06,-104.68 -133.58,-196.05 -5.89,-152.81 35.66,-293.36 122.78,-419.14 37.44,-54.06 86.06,-95.32 150.98,-115.74 90.66,-28.51 240.18,32.79 274.79,120.75 12.8,32.54 12.08,72.98 8.45,108.89 -7.08,69.75 -20.12,138.93 -31.6,208.2 -6.29,37.86 -28.99,48.99 -67.14,34.78 -71.14,-26.52 -112.93,-95.18 -102.52,-171.34 5.77,-42.26 14.42,-84.13 21.26,-126.25 1.5,-9.25 1.93,-18.97 0.92,-28.26 -1.82,-16.81 -11.16,-21.34 -25.64,-12.23 -7.98,5.02 -16.87,9.89 -22.58,17.03 -79.8,99.76 -130.46,211.8 -136.23,340.76 -2.35,52.41 22.08,87.83 72.19,103.91 54.05,17.35 110.71,26.51 164.92,43.46 89.25,27.89 128.93,99 103.69,189.3 -9.46,33.82 -26.23,68.31 -48.35,95.42 -89.05,109.09 -285.22,150.13 -413.26,90.08 -55.64,-26.09 -82.24,-60.78 -97.45,-121.32z"/>
    <path class="fil1" d="M1725.8 947.3c3.78,-10.15 7.51,-20.34 11.36,-30.47 33.33,-87.78 62.58,-177.39 101.11,-262.83 43.79,-97.12 109.71,-99.25 188.79,-32.09 36.7,31.16 45.27,71.25 38.79,118.31 -13.95,101.44 -25.05,203.29 -37.27,304.97 -0.57,4.71 -1.07,9.46 -1,14.19 0.57,39.88 13.96,49.02 52.04,35.41 5.35,-1.92 10.3,-4.9 15.5,-7.25 19.91,-9 31.62,-2.35 33.35,19.14 3.84,47.91 -13.21,88.39 -49.68,118.62 -33.95,28.14 -73.42,33.88 -115.18,17.38 -70.54,-27.85 -118.31,-102.14 -113.83,-187.48 3.97,-75.67 14.28,-150.99 21.64,-226.49 0.97,-9.95 1.06,-20 1.55,-30 -2.87,-1.21 -5.74,-2.42 -8.61,-3.63 -6.41,11.11 -14.68,21.56 -18.94,33.45 -53.15,148.4 -106.11,296.87 -158.17,445.66 -14.86,42.45 -27.06,49.84 -69.03,34.81 -62.1,-22.24 -108.93,-89.49 -103.12,-155.69 14.93,-170.07 32,-339.96 48.28,-509.92 9.77,-101.99 19.53,-203.98 29.65,-305.93 3.4,-34.33 12.97,-41.35 46.18,-35.03 69.68,13.26 143.84,84.47 130.48,169.77 -22.43,143.28 -35.31,288.04 -52.01,432.2 -1.57,13.63 -1.69,27.42 -2.48,41.14 3.52,0.59 7.04,1.18 10.58,1.77z"/>
    <path class="fil1" d="M3403.69 790.49c-2.29,9.62 -5.61,19.12 -6.73,28.87 -6.21,54.64 -13.46,109.24 -17.11,164.05 -1.85,27.96 -16.29,34.19 -39.04,32.18 -81.25,-7.19 -138.12,-74.48 -130.24,-154.8 26.93,-274.68 54.21,-549.33 81.47,-823.97 3.46,-34.83 11.32,-40.56 45.69,-34.94 81.6,13.32 137.4,84.07 129.19,166.35 -12.44,124.56 -26.38,248.97 -39.02,373.51 -0.92,9.09 3.56,18.73 5.54,28.13 8.16,-5.39 18.7,-9.04 24.11,-16.44 65.09,-89.23 129.51,-178.94 193.91,-268.66 23.38,-32.58 42.74,-33.88 65.64,-0.49 38.66,56.35 50.51,117.17 3.61,179.73 -51.39,68.52 -103.66,136.46 -157.86,202.76 -16.92,20.69 -19.17,35.68 0.76,52.4 31.07,26.08 60.46,55.4 95.16,75.38 17.45,10.05 46.52,7.81 67.64,1.76 33.2,-9.52 45.4,-4.81 41.48,29.38 -11.15,96.85 -120.98,182.52 -227.21,119.02 -49.78,-29.74 -81.89,-75.45 -109.38,-125.01 -5.77,-10.4 -12.34,-20.35 -18.55,-30.51 -3.01,0.44 -6.02,0.87 -9.03,1.31z"/>
    <path class="fil1" d="M2511.7 521.95c2.46,-6.52 4.24,-9.78 4.92,-13.26 9.4,-48.26 24.89,-59.41 69.44,-37.51 33.26,16.34 64.29,40.29 90.52,66.62 13.13,13.19 19.94,39.86 18.21,59.43 -9.63,108.55 -22.76,216.8 -34.67,325.16 -0.73,6.59 -1.79,13.18 -2.08,19.8 -1.91,43.79 14.65,55.64 55.44,39.85 39.91,-15.44 50.87,-7.03 45.83,35.94 -6.22,53.02 -31.43,93.76 -81.76,114.27 -48.1,19.61 -88.91,0.78 -125.91,-30.26 -29.42,-24.67 -29.48,-24.59 -53.19,7.09 -76.66,102.51 -197.08,107.26 -282.56,11.28 -51.37,-57.68 -70.38,-127.7 -73.08,-202.2 -3.93,-108.32 16.78,-211.96 73.16,-305.94 37.66,-62.77 87.99,-111.71 165.96,-115.09 31.35,-1.35 63.28,8.1 94.77,13.68 11.59,2.05 22.66,7.11 35,11.14zm-178.27 476.13l0 0c4.71,14.62 9.39,36.17 18.53,55.63 9.88,21.03 28.95,23.4 43.91,6.87 15.65,-17.31 29.62,-37.44 39.33,-58.62 36.4,-79.43 54.32,-163.74 54.35,-250.84 0.01,-39.31 -5.15,-79.4 -14.09,-117.69 -6.61,-28.29 -27.47,-33.91 -49.72,-15.44 -17.04,14.14 -32.61,32.62 -42.53,52.34 -50.95,101.38 -63.24,209.33 -49.78,327.75z"/>
    <path class="fil1" d="M2983.65 508.08c6.48,-14.8 10.31,-23.69 14.25,-32.53 11.56,-25.86 19.71,-54.06 35.43,-77.08 34.73,-50.84 96.98,-47.97 128.68,5.15 25.39,42.55 30.01,89.95 20.09,137.95 -4.73,22.94 -19.34,31.78 -44.82,24.91 -73.99,-19.94 -131.55,17.37 -141.27,94.04 -16.69,131.76 -30.49,263.88 -45.35,395.87 -3.46,30.76 -11.16,38.82 -41.6,36 -64.08,-5.93 -137.67,-51.27 -128.25,-143.69 17.33,-169.84 32.99,-339.87 49.58,-509.79 2.89,-29.64 15.01,-37.99 44.27,-29.9 39.78,10.99 66.48,38.99 89.24,71.6 5.18,7.42 10.56,14.69 19.74,27.46z"/>
   </g>
  </g>
  <g id="_2953132000656">
   <g>
    <path class="fil0" d="M760.36 396.02c-22.81,-15.48 -46.41,-20.82 -68.21,-15.51l-6.82 1.26c-4.87,0.85 -8.94,1.61 -12.82,2.81 -104.47,31.88 -208.86,63.78 -313.24,95.97 -10.45,3.22 -25.02,9.16 -30.86,23.34 -5.91,14.35 0.44,29.22 5.75,39.18 33.26,62.45 89.24,87.37 150.11,66.75 2.62,-0.88 4.74,-1.58 6.51,-2.09 -0.16,2.19 -0.44,4.93 -0.85,8.47l-13.58 112.93c-12.57,104.65 -25.14,209.28 -38.06,313.9 -4.81,38.98 11.05,60.28 25.17,71.27 24.13,18.83 46.57,32.35 68.51,41.35 6.79,2.8 15.61,5.81 24.58,5.81 5.53,0 11.11,-1.13 16.39,-4.17 13.99,-8.09 17.98,-25.27 19.84,-39.36l10.74 -79.95c21.04,-156.75 42.05,-313.49 62.42,-470.33 1.99,-15.26 6.67,-18.8 17.16,-21.39 18.06,-4.52 36.04,-9.38 53.98,-14.24 18.45,-4.99 36.89,-10.02 55.43,-14.6 19.34,-4.77 28.91,-18.7 26.25,-38.16 -3.72,-27.42 -28.84,-63.21 -58.4,-83.24z"/>
    <path class="fil0" d="M179.55 467.5c-12.89,-2.17 -26.32,-3.63 -36.83,4.2 -10.59,7.87 -13.08,21.2 -14.69,34.15l-23.34 186.67c-16.93,135.48 -33.83,270.94 -51.11,406.37 -4.27,33.39 4.95,59.17 27.38,76.57 21.8,17 43.95,30.05 65.74,38.79 6.89,2.78 15.76,5.75 24.8,5.75 5.65,0 11.33,-1.17 16.68,-4.26 13.9,-8.05 17.84,-24.95 19.7,-38.72 19.75,-144.08 39.37,-288.13 58.95,-432.17l22.03 -163.16 -0.36 -2.25c-8.05,-54.62 -54.9,-102.73 -108.95,-111.92z"/>
   </g>
  </g>
  <g id="_2953131999888">
   <g>
    <path class="fil1" d="M707.79 366.76c-22.8,-15.48 -46.4,-20.83 -68.2,-15.52l-6.82 1.27c-4.87,0.85 -8.94,1.61 -12.82,2.81 -104.47,31.87 -208.87,63.77 -313.24,95.96 -10.45,3.22 -25.01,9.17 -30.86,23.35 -5.91,14.34 0.44,29.22 5.75,39.17 33.25,62.46 89.24,87.38 150.11,66.75 2.62,-0.88 4.73,-1.57 6.51,-2.08 -0.16,2.18 -0.44,4.92 -0.85,8.46l-13.58 112.93c-12.57,104.66 -25.14,209.28 -38.07,313.91 -4.8,38.98 11.06,60.27 25.18,71.26 24.14,18.83 46.56,32.35 68.51,41.35 6.79,2.81 15.61,5.82 24.58,5.82 5.53,0 11.11,-1.14 16.39,-4.17 13.99,-8.09 17.98,-25.27 19.84,-39.36l10.74 -79.95c21.04,-156.74 42.05,-313.49 62.42,-470.33 2,-15.26 6.67,-18.79 17.15,-21.38 18.07,-4.52 36.05,-9.39 53.99,-14.25 18.45,-4.99 36.89,-10.01 55.43,-14.59 19.33,-4.77 28.91,-18.7 26.26,-38.16 -3.73,-27.43 -28.85,-63.22 -58.42,-83.24z"/>
    <path class="fil1" d="M126.99 438.24c-12.89,-2.18 -26.32,-3.63 -36.83,4.2 -10.59,7.86 -13.08,21.19 -14.68,34.15l-23.35 186.66c-16.93,135.48 -33.83,270.94 -51.11,406.37 -4.27,33.39 4.95,59.17 27.38,76.58 21.8,16.99 43.95,30.04 65.74,38.79 6.88,2.77 15.76,5.75 24.8,5.75 5.65,0 11.33,-1.17 16.68,-4.26 13.9,-8.06 17.84,-24.96 19.71,-38.73 19.74,-144.07 39.36,-288.13 58.94,-432.17l22.03 -163.16 -0.35 -2.24c-8.06,-54.62 -54.91,-102.73 -108.96,-111.92z"/>
   </g>
  </g>
 </g>
</svg>
